External Loads File
version=1
nRows=69
nColumns=13
Range=5.000000e-03-10 seconds
endheader
time 	forceRightX 	forceRightY 	forceRightZ 	pointRightX 	pointRightY 	pointRightZ 	forceLeftX 	forceLeftY 	forceLeftZ 	pointLeftX 	pointLeftY 	pointLeftZ 		
2.505000 102.003927 -108.816977 -0.000000 0.156489 0.184470 -0.097774 -183.901375 499.675801 -0.000000 0.316702 0.470277 -0.344424
2.510000 100.425833 -118.894259 -0.000000 0.150289 0.189776 -0.097826 -201.365198 533.026584 -0.000000 0.321351 0.464256 -0.344607
2.515000 100.339709 -124.362430 -0.000000 0.144379 0.195375 -0.097836 -219.643821 563.936006 -0.000000 0.325788 0.458311 -0.344938
2.520000 101.418509 -125.946152 -0.000000 0.138778 0.201179 -0.097891 -237.901656 592.022803 -0.000000 0.330083 0.452117 -0.344971
2.525000 103.261709 -124.547184 -0.000000 0.133454 0.207322 -0.097929 -255.096907 617.205803 -0.000000 0.334360 0.445580 -0.344874
2.530000 105.573797 -121.033318 -0.000000 0.128388 0.213903 -0.097923 -270.606560 639.480007 -0.000000 0.338505 0.438603 -0.344831
2.535000 108.359173 -115.943848 -0.000000 0.123672 0.220749 -0.097947 -285.393126 658.402940 -0.000000 0.342439 0.431746 -0.344783
2.540000 111.186545 -110.067787 -0.000000 0.119335 0.227743 -0.097974 -298.105148 674.777879 -0.000000 0.346430 0.424264 -0.344731
2.545000 114.109514 -103.653111 -0.000000 0.115387 0.235019 -0.098128 -309.977152 688.588089 -0.000000 0.350131 0.416669 -0.344674
2.550000 117.084142 -97.021861 -0.000000 0.111845 0.242422 -0.098108 -321.471398 700.382348 -0.000000 0.353550 0.408942 -0.344654
2.555000 119.942316 -90.715835 -0.000000 0.108607 0.250101 -0.098216 -331.722121 711.445524 -0.000000 0.356785 0.400899 -0.344573
2.560000 122.738700 -85.011900 -0.000000 0.105846 0.258029 -0.098270 -341.414703 722.360289 -0.000000 0.359848 0.392838 -0.344376
2.565000 125.253552 -80.410311 -0.000000 0.103164 0.266125 -0.098260 -349.508645 734.367564 -0.000000 0.362580 0.384507 -0.344290
2.570000 127.377349 -77.018385 -0.000000 0.101089 0.274346 -0.098280 -356.594829 747.668124 -0.000000 0.365013 0.376089 -0.344132
2.575000 128.773105 -75.073343 -0.000000 0.099415 0.282676 -0.098347 -361.873373 762.867396 -0.000000 0.367209 0.367516 -0.343994
2.580000 129.097500 -74.718177 -0.000000 0.098021 0.291358 -0.098449 -364.631761 780.339773 -0.000000 0.369098 0.358866 -0.343887
2.585000 128.144495 -75.816088 -0.000000 0.097246 0.300088 -0.098520 -365.463111 799.690843 -0.000000 0.370665 0.350039 -0.343779
2.590000 125.759244 -78.147987 -0.000000 0.096917 0.308688 -0.098569 -365.181657 820.319565 -0.000000 0.371928 0.341242 -0.343608
2.595000 121.701136 -81.679998 -0.000000 0.097065 0.317352 -0.098689 -362.955500 842.243791 -0.000000 0.372829 0.332398 -0.343400
2.600000 115.843230 -86.238882 -0.000000 0.097701 0.326170 -0.098733 -358.029501 865.230558 -0.000000 0.373379 0.323468 -0.343240
2.605000 108.190301 -91.513445 -0.000000 0.098751 0.335064 -0.098799 -349.748582 888.720482 -0.000000 0.373561 0.314355 -0.343013
2.610000 99.148217 -96.831843 -0.000000 0.100186 0.343751 -0.098851 -340.109134 910.868193 -0.000000 0.373535 0.305569 -0.342721
2.615000 88.699976 -102.159812 -0.000000 0.102020 0.352519 -0.099043 -325.996122 931.646258 -0.000000 0.372751 0.296714 -0.342634
2.620000 77.288217 -107.089589 -0.000000 0.104365 0.361139 -0.099027 -308.195642 949.454850 -0.000000 0.371764 0.287920 -0.342522
2.625000 65.216075 -111.455301 -0.000000 0.107113 0.369768 -0.098971 -286.411058 963.192580 -0.000000 0.370401 0.279333 -0.342452
2.630000 52.727359 -115.130031 -0.000000 0.110122 0.378138 -0.099127 -260.726003 971.812919 -0.000000 0.368546 0.270664 -0.342444
2.635000 39.909194 -117.997310 -0.000000 0.114060 0.386603 -0.098864 -230.957256 974.589707 -0.000000 0.366387 0.262298 -0.342402
2.640000 27.145417 -119.783512 -0.000000 0.117498 0.394881 -0.099085 -200.086628 970.397942 -0.000000 0.363924 0.253995 -0.342401
2.645000 14.301012 -120.381672 -0.000000 0.121584 0.403036 -0.099211 -166.996612 959.482890 -0.000000 0.361100 0.245741 -0.342437
2.650000 1.637112 -119.623891 -0.000000 0.126212 0.411044 -0.099387 -133.556649 941.774126 -0.000000 0.357951 0.237807 -0.342514
2.655000 -10.662771 -117.480165 -0.000000 0.131287 0.418887 -0.099333 -100.484896 917.772296 -0.000000 0.354531 0.230064 -0.342482
2.660000 -22.211701 -114.054597 -0.000000 0.136437 0.426475 -0.099592 -69.609142 888.137890 -0.000000 0.350823 0.222579 -0.342583
2.665000 -32.957194 -109.482910 -0.000000 0.141959 0.434035 -0.099818 -39.895020 853.970020 -0.000000 0.346817 0.215145 -0.342634
2.670000 -42.549314 -103.979811 -0.000000 0.147817 0.441194 -0.099994 -12.649843 816.190972 -0.000000 0.342527 0.207763 -0.342624
2.675000 -50.728014 -97.822092 -0.000000 0.153856 0.448198 -0.100304 11.171279 775.833976 -0.000000 0.337915 0.201054 -0.342651
2.680000 -57.642111 -91.167495 -0.000000 0.160486 0.454940 -0.100178 33.124572 733.882311 -0.000000 0.332958 0.194606 -0.342686
2.685000 -63.113947 -84.426003 -0.000000 0.166920 0.461171 -0.101108 51.217654 691.318698 -0.000000 0.327734 0.188500 -0.342704
2.690000 -67.532766 -77.688824 -0.000000 0.173730 0.466864 -0.101481 67.112261 648.863909 -0.000000 0.322114 0.182697 -0.342631
2.695000 -71.146597 -71.067178 -0.000000 0.180769 0.472432 -0.101532 80.725595 607.169228 -0.000000 0.316169 0.177365 -0.342594
2.700000 -74.186635 -64.569487 -0.000000 0.187906 0.477630 -0.102134 91.693283 566.937174 -0.000000 0.309892 0.172621 -0.342494
2.705000 -76.955095 -57.926770 -0.000000 0.195357 0.482307 -0.102366 100.728611 528.761941 -0.000000 0.303331 0.168213 -0.342340
2.710000 -79.646293 -50.784067 -0.000000 0.202990 0.486751 -0.102568 108.282220 493.157193 -0.000000 0.296467 0.164008 -0.342222
2.715000 -82.391441 -42.739358 -0.000000 0.210793 0.490634 -0.102781 114.719981 460.384601 -0.000000 0.289190 0.160302 -0.342075
2.720000 -85.272475 -33.343787 -0.000000 0.218707 0.493915 -0.102924 120.380767 430.390663 -0.000000 0.281666 0.156933 -0.341938
2.725000 -88.314255 -22.060397 -0.000000 0.226794 0.496642 -0.102896 125.804688 402.789200 -0.000000 0.273885 0.154391 -0.341841
2.730000 -91.405480 -8.386168 -0.000000 0.234990 0.498879 -0.102925 131.520282 376.971735 -0.000000 0.265731 0.152331 -0.341644
2.735000 -94.245144 7.811368 -0.000000 0.243211 0.500800 -0.103321 137.366364 352.407720 -0.000000 0.257391 0.150844 -0.341394
2.740000 -96.474482 26.289877 -0.000000 0.251201 0.501957 -0.103499 143.009616 328.596823 -0.000000 0.248888 0.149761 -0.341170
2.745000 -97.788764 46.634652 -0.000000 0.259030 0.502725 -0.103606 148.295186 305.000990 -0.000000 0.240271 0.149350 -0.341112
2.750000 -98.056451 68.301639 -0.000000 0.266520 0.502947 -0.103556 152.720829 281.343518 -0.000000 0.231588 0.149345 -0.340973
2.755000 -97.206912 91.002711 -0.000000 0.274093 0.502677 -0.103637 156.206376 257.293816 -0.000000 0.222952 0.149908 -0.340768
2.760000 -95.421445 114.441953 -0.000000 0.281390 0.501922 -0.103622 158.190855 232.976642 -0.000000 0.214334 0.151027 -0.340635
2.765000 -92.983109 138.564571 -0.000000 0.288416 0.500471 -0.103634 158.411946 208.577451 -0.000000 0.205877 0.152536 -0.340499
2.770000 -90.227171 163.529437 -0.000000 0.295170 0.498549 -0.103583 156.815479 184.362500 -0.000000 0.197598 0.154588 -0.340263
2.775000 -87.523816 189.686332 -0.000000 0.301670 0.496032 -0.103531 153.533357 160.715897 -0.000000 0.189530 0.157084 -0.340123
2.780000 -85.197558 217.552082 -0.000000 0.307944 0.492940 -0.103395 148.937366 138.089592 -0.000000 0.181624 0.160116 -0.339973
2.785000 -83.787583 247.603403 -0.000000 0.313841 0.489396 -0.103346 143.406357 117.144626 -0.000000 0.173886 0.163437 -0.339949
2.790000 -83.564019 280.346759 -0.000000 0.319366 0.485213 -0.103308 137.567081 98.324288 -0.000000 0.166360 0.167312 -0.339819
2.795000 -84.619236 316.101725 -0.000000 0.324842 0.480363 -0.103056 132.032457 81.916239 -0.000000 0.159042 0.171540 -0.339747
2.800000 -87.456889 354.717159 -0.000000 0.329897 0.474968 -0.102837 127.209593 68.227742 -0.000000 0.151950 0.176326 -0.339618
2.805000 -91.917696 395.761423 -0.000000 0.334771 0.468980 -0.102649 123.555813 57.094608 -0.000000 0.145054 0.181790 -0.339498
2.810000 -98.023774 438.257144 -0.000000 0.339705 0.462387 -0.102756 121.293030 48.278743 -0.000000 0.138389 0.187557 -0.339498
2.815000 -105.635125 480.872003 -0.000000 0.344473 0.455175 -0.102640 120.463896 41.382952 -0.000000 0.131965 0.193881 -0.339420
2.820000 -114.894152 522.023355 -0.000000 0.349174 0.447566 -0.102599 120.878049 36.056491 -0.000000 0.125902 0.200454 -0.339348
2.825000 -124.776036 560.454744 -0.000000 0.353686 0.439088 -0.102446 122.287157 31.747081 -0.000000 0.120175 0.207419 -0.339291
2.830000 -135.844086 594.878791 -0.000000 0.357801 0.430741 -0.102178 124.328215 28.374616 -0.000000 0.114627 0.214843 -0.338653
2.835000 -147.688350 624.694994 -0.000000 0.361937 0.422155 -0.101894 126.801459 25.680922 -0.000000 0.109829 0.222501 -0.338588
2.840000 -159.604796 649.874280 -0.000000 0.365865 0.413343 -0.101721 129.609304 23.324523 -0.000000 0.105485 0.230502 -0.338443
2.845000 -171.529992 670.657213 -0.000000 0.369592 0.404261 -0.101596 132.662940 21.022186 -0.000000 0.101617 0.238561 -0.338378
